<svg width="128" height="128" viewBox="0 0 128 128" fill="none" xmlns="http://www.w3.org/2000/svg">
<rect width="128" height="128" rx="64" fill="#ECECEC"/>
<path d="M99.8032 27.0007H85.5946C84.3831 27.0007 83.3981 27.9395 83.3981 29.0942V31.2597C83.3981 32.6467 82.2175 33.772 80.7624 33.772H79.3003C69.3547 33.772 61.2892 41.4593 61.2892 50.9392V58.8947C61.2892 60.2816 60.1086 61.4069 58.6535 61.4069H50.5128C49.4043 61.4069 48.409 60.7462 48.0418 59.7517C46.3017 55.0445 41.3871 51.7569 35.7591 52.2444C29.9453 52.7481 25.2916 57.3932 25.0139 62.9508C24.6879 69.4343 30.131 74.8054 36.8608 74.8054C42.0328 74.8054 46.4392 71.629 48.0558 67.2195C48.4162 66.2349 49.4218 65.5937 50.5166 65.5937H58.6538C60.1089 65.5937 61.2896 66.7191 61.2896 68.106V76.0615C61.2896 85.5411 69.3548 93.2287 79.3007 93.2287H80.7627C82.2178 93.2287 83.3985 94.354 83.3985 95.741V97.9064C83.3985 99.0612 84.3835 100 85.595 100H99.8035C101.015 100 102 99.0612 102 97.9064V84.3636C102 83.2089 101.015 82.2701 99.8035 82.2701H85.595C84.3835 82.2701 83.3985 83.2089 83.3985 84.3636V86.5291C83.3985 87.9161 82.2178 89.0414 80.7627 89.0414H79.3007C71.7812 89.0414 65.6825 83.2285 65.6825 76.0613V50.9387C65.6825 43.7715 71.7812 37.9586 79.3007 37.9586H80.7627C82.2178 37.9586 83.3985 39.0839 83.3985 40.4709V42.6364C83.3985 43.7911 84.3835 44.7299 85.595 44.7299H99.8035C101.015 44.7299 102 43.7911 102 42.6364V29.0936C102 27.9388 101.015 27.0007 99.8032 27.0007ZM36.854 70.6187C32.7356 70.6187 29.386 67.426 29.386 63.5006C29.386 59.5752 32.7356 56.3825 36.854 56.3825C40.9724 56.3825 44.322 59.5752 44.322 63.5006C44.322 67.426 40.9724 70.6187 36.854 70.6187ZM92.6963 86.4577C95.4041 86.4577 97.604 88.5578 97.604 91.1355C97.604 93.7164 95.4006 95.8132 92.6963 95.8132C89.9884 95.8132 87.7885 93.7131 87.7885 91.1355C87.7885 88.5545 89.9919 86.4577 92.6963 86.4577ZM92.6963 40.5435C89.9884 40.5435 87.7885 38.4434 87.7885 35.8657C87.7885 33.2848 89.9919 31.188 92.6963 31.188C95.4041 31.188 97.604 33.288 97.604 35.8657C97.604 38.4467 95.4006 40.5435 92.6963 40.5435Z" fill="#4D4D4D"/>
</svg>
